<svg width="93" height="46" viewBox="0 0 93 46" fill="none" xmlns="http://www.w3.org/2000/svg">
<path d="M81.54 30.96H61.38V37.44H81.54V30.96ZM55.524 45.072V25.68H87.684V44.928H81.54V42.72H61.38V45.072H55.524ZM75.348 16.992H92.292V22.272H50.004V16.992H69.3V11.472H58.836C57.588 13.584 56.244 15.408 54.9 16.896C53.7 15.984 51.108 14.496 49.668 13.872C53.124 10.608 56.148 5.328 57.828 0.144001L63.54 1.584C63.012 3.168 62.388 4.704 61.668 6.24H69.3V0H75.348V6.24H89.364V11.472H75.348V16.992Z" fill="#F0F0F9"/>
<path d="M19.38 1.53602V5.85602H3.3V1.53602H19.38ZM14.34 32.4H8.19601V37.776H14.34V32.4ZM19.764 27.84V42.336H8.19601V44.352H2.86801V27.84H19.764ZM3.01201 25.488V21.216H19.524V25.488H3.01201ZM19.524 14.64V19.008H3.01201V14.64H19.524ZM0.708008 12.48V7.96802H21.396V12.48H0.708008ZM46.212 22.8L43.332 28.368C40.836 26.544 36.324 24.048 32.196 21.936V44.784H26.292V0.624023H32.196V15.696C36.852 17.808 43.092 20.736 46.212 22.8Z" fill="#F0F0F9"/>
</svg>
