<svg width="24" height="25" viewBox="0 0 24 25" fill="none" xmlns="http://www.w3.org/2000/svg">
<mask id="mask0_1741_1564" style="mask-type:alpha" maskUnits="userSpaceOnUse" x="0" y="0" width="24" height="25">
<rect y="0.0720215" width="24" height="24" fill="#D9D9D9"/>
</mask>
<g mask="url(#mask0_1741_1564)">
<path d="M18.6923 18.572H8.30773C7.8026 18.572 7.37503 18.397 7.02503 18.047C6.67503 17.697 6.50003 17.2694 6.50003 16.7643V3.37972C6.50003 2.87459 6.67503 2.44702 7.02503 2.09702C7.37503 1.74702 7.8026 1.57202 8.30773 1.57202H15.25L20.5 6.82197V16.7643C20.5 17.2694 20.325 17.697 19.975 18.047C19.625 18.397 19.1974 18.572 18.6923 18.572ZM14.5 7.57197V3.072H8.30773C8.2308 3.072 8.16027 3.10405 8.09616 3.16815C8.03206 3.23226 8.00001 3.30279 8.00001 3.37972V16.7643C8.00001 16.8412 8.03206 16.9117 8.09616 16.9758C8.16027 17.0399 8.2308 17.072 8.30773 17.072H18.6923C18.7692 17.072 18.8397 17.0399 18.9039 16.9758C18.968 16.9117 19 16.8412 19 16.7643V7.57197H14.5ZM4.30773 22.572C3.8026 22.572 3.37503 22.397 3.02503 22.047C2.67503 21.697 2.50003 21.2694 2.50003 20.7643V7.57202H4.00001V20.7643C4.00001 20.8412 4.03206 20.9117 4.09616 20.9758C4.16027 21.0399 4.2308 21.072 4.30773 21.072H14.5V22.5719L4.30773 22.572Z" fill="#F0F0F9"/>
</g>
</svg>
