<svg width="187" height="64" viewBox="0 0 187 64" fill="none" xmlns="http://www.w3.org/2000/svg">
<path fill-rule="evenodd" clip-rule="evenodd" d="M6.0097 27.0046L27.6555 30.0969L10.1631 16.9776C7.70642 15.1351 7.45121 11.544 9.62259 9.37258C11.794 7.20121 15.3851 7.45642 17.2276 9.91305L30.3469 27.4055L27.2546 5.7597C26.8204 2.71978 29.1792 0 32.25 0C35.3208 0 37.6796 2.71978 37.2454 5.7597L34.1531 27.4055L47.2724 9.91305C49.1149 7.45642 52.706 7.20121 54.8774 9.37258C57.0488 11.544 56.7936 15.1351 54.3369 16.9776L36.8445 30.0969L58.4903 27.0046C61.5302 26.5704 64.25 28.9292 64.25 32C64.25 35.0708 61.5302 37.4296 58.4903 36.9954L36.8445 33.9031L54.3369 47.0224C56.7936 48.8649 57.0488 52.456 54.8774 54.6274C52.706 56.7988 49.1149 56.5436 47.2724 54.087L34.1531 36.5945L37.2454 58.2403C37.6796 61.2802 35.3208 64 32.25 64C29.1792 64 26.8204 61.2802 27.2546 58.2403L30.3469 36.5945L17.2276 54.087C15.3851 56.5436 11.794 56.7988 9.62258 54.6274C7.4512 52.456 7.70642 48.8649 10.1631 47.0224L27.6555 33.9031L6.0097 36.9954C2.96978 37.4296 0.25 35.0708 0.25 32C0.25 28.9292 2.96978 26.5704 6.0097 27.0046Z" fill="#F0F0F9"/>
<path d="M142.728 28.0697V9.36243H138.183V8.08278H164.302C168.06 8.08278 169.454 6.37658 170.544 5.21879C171.332 4.48757 171.514 4.48757 172.363 5.21879L175.696 7.9609C176.302 8.44839 176.423 8.6312 176.18 9.36243H148.425V16.7357H163.696C167.454 16.7357 168.848 14.9685 169.999 13.8107C170.726 13.0795 170.908 13.0795 171.757 13.8107L175.15 16.6138C175.696 17.0403 175.877 17.2231 175.514 18.0153H148.425V25.3885H165.757C169.514 25.3885 170.908 23.6823 172.06 22.5246C172.787 21.7933 172.969 21.7933 173.817 22.5246L177.211 25.2667C177.756 25.7542 177.938 25.937 177.635 26.6682H148.425C147.031 27.5213 144.607 28.0088 142.728 28.0697ZM182.059 30.8728L186.18 34.2242C186.725 34.7117 186.907 34.8945 186.604 35.5648H145.273C141.455 35.5648 139.698 37.1492 138.547 38.1241C137.819 38.7335 137.698 38.6725 136.789 38.1241L131.517 34.7117C131.153 34.468 131.032 34.2852 131.335 33.6149C134.607 33.9805 138.122 34.1633 141.94 34.1633H173.696C177.514 34.1633 179.029 32.2134 180.301 30.8728C181.029 30.1415 181.21 30.2025 182.059 30.8728ZM175.817 52.1394L178.423 58.3548C178.726 59.0251 178.726 59.3298 178.18 59.6954C174.787 57.3798 171.15 55.0643 166.666 52.6878L159.515 48.6051C152.849 54.6377 143.637 58.0501 137.031 59.4517L136.607 58.5986C143.758 55.9174 152.788 50.4332 158.06 42.085L154.182 40.4397L154.788 39.221L164.242 43.1209C163.212 44.7052 162.06 46.1067 160.727 47.4473L166.848 50.9206C169.696 52.3831 172.787 51.7128 174.302 51.3472C175.211 51.1035 175.393 51.1035 175.817 52.1394Z" fill="#F0F0F9"/>
<path d="M113.278 5.27965V4H122.368V55.7345C122.368 58.0501 121.641 59.2078 119.944 59.5125L117.399 60V28.0696H110.308V51.4081C110.308 53.9064 109.581 54.9423 107.824 55.3079L105.4 55.7954V8.63112H101.642V7.35147H110.308V26.6072H117.399V5.27965H113.278ZM88.0674 14.2372C93.8852 14.2372 99.8242 18.8074 99.8242 26.8509C99.8242 34.8945 93.8852 39.4646 88.0674 39.4646C82.189 39.4646 76.25 34.8945 76.25 26.8509C76.25 18.8074 82.189 14.2372 88.0674 14.2372ZM88.0674 38.0022C92.249 38.0022 94.673 32.8226 94.673 26.8509C94.673 20.8183 92.249 15.6387 88.0674 15.6387C83.8253 15.6387 81.4012 20.8183 81.4012 26.8509C81.4012 32.8226 83.8253 38.0022 88.0674 38.0022Z" fill="#F0F0F9"/>
</svg>
