<svg width="21" height="20" viewBox="0 0 21 20" fill="none" xmlns="http://www.w3.org/2000/svg">
<path d="M13.3815 3.20501C12.6836 4.0447 11.5668 4.70699 10.4501 4.61238C10.3105 3.47702 10.8572 2.27071 11.497 1.52563C12.195 0.66229 13.4164 0.0473064 14.4052 0C14.5216 1.18266 14.0679 2.34167 13.3815 3.20501ZM14.3936 4.83708C12.7766 4.74247 11.3923 5.77138 10.6245 5.77138C9.84515 5.77138 8.67023 4.88439 7.39061 4.90804C5.72711 4.93169 4.17994 5.88965 3.33074 7.41528C1.58581 10.4665 2.87706 14.9843 4.56383 17.4679C5.38976 18.6979 6.37855 20.0461 7.68143 19.9988C8.91452 19.9515 9.4031 19.1828 10.8921 19.1828C12.3927 19.1828 12.8232 19.9988 14.126 19.9751C15.4755 19.9515 16.3247 18.7452 17.1506 17.5152C18.0928 16.1197 18.4767 14.7596 18.5 14.6886C18.4767 14.665 15.8942 13.6597 15.871 10.6321C15.8477 8.10122 17.9067 6.89491 17.9998 6.82395C16.8365 5.07361 15.0218 4.88439 14.3936 4.83708Z" fill="black"/>
</svg>
