<svg width="369" height="64" viewBox="0 0 369 64" fill="none" xmlns="http://www.w3.org/2000/svg">
<g filter="url(#filter0_d_1727_1570)">
<rect x="4" width="361" height="56" rx="8" fill="white"/>
<path d="M131.882 21.205C131.184 22.0447 130.067 22.707 128.95 22.6124C128.81 21.477 129.357 20.2707 129.997 19.5256C130.695 18.6623 131.916 18.0473 132.905 18C133.022 19.1827 132.568 20.3417 131.882 21.205ZM132.894 22.8371C131.277 22.7425 129.892 23.7714 129.125 23.7714C128.345 23.7714 127.17 22.8844 125.891 22.908C124.227 22.9317 122.68 23.8896 121.831 25.4153C120.086 28.4665 121.377 32.9843 123.064 35.4679C123.89 36.6979 124.879 38.0461 126.181 37.9988C127.415 37.9515 127.903 37.1828 129.392 37.1828C130.893 37.1828 131.323 37.9988 132.626 37.9751C133.975 37.9515 134.825 36.7452 135.651 35.5152C136.593 34.1197 136.977 32.7596 137 32.6886C136.977 32.665 134.394 31.6597 134.371 28.6321C134.348 26.1012 136.407 24.8949 136.5 24.824C135.336 23.0736 133.522 22.8844 132.894 22.8371Z" fill="black"/>
<path d="M149.481 34H147.304L151.293 22.6851H153.801L157.79 34H155.619L154.68 31.1989H150.42L149.481 34ZM150.967 29.5635H154.127L152.591 24.9945H152.503L150.967 29.5635ZM159.055 37.1823V25.5138H161.005V26.9116H161.127C161.431 26.3039 162.055 25.4033 163.558 25.4033C165.519 25.4033 167.055 26.9392 167.055 29.768C167.055 32.558 165.558 34.1492 163.563 34.1492C162.099 34.1492 161.442 33.2818 161.127 32.663H161.044V37.1823H159.055ZM161.005 29.7569C161.005 31.4088 161.724 32.5193 163.011 32.5193C164.337 32.5193 165.033 31.3536 165.033 29.7569C165.033 28.1713 164.348 27.0387 163.011 27.0387C161.713 27.0387 161.005 28.105 161.005 29.7569ZM168.633 37.1823V25.5138H170.583V26.9116H170.705C171.009 26.3039 171.633 25.4033 173.136 25.4033C175.097 25.4033 176.633 26.9392 176.633 29.768C176.633 32.558 175.136 34.1492 173.141 34.1492C171.677 34.1492 171.02 33.2818 170.705 32.663H170.622V37.1823H168.633ZM170.583 29.7569C170.583 31.4088 171.302 32.5193 172.589 32.5193C173.915 32.5193 174.611 31.3536 174.611 29.7569C174.611 28.1713 173.926 27.0387 172.589 27.0387C171.291 27.0387 170.583 28.105 170.583 29.7569ZM180.2 22.6851V34H178.211V22.6851H180.2ZM185.874 34.1657C183.316 34.1657 181.753 32.4641 181.753 29.8066C181.753 27.1878 183.339 25.4033 185.764 25.4033C187.847 25.4033 189.642 26.7072 189.642 29.6906V30.3039H183.725C183.747 31.7624 184.604 32.6188 185.897 32.6188C186.764 32.6188 187.355 32.2376 187.615 31.7293H189.56C189.2 33.1989 187.847 34.1657 185.874 34.1657ZM183.731 28.9558H187.731C187.725 27.8011 186.946 26.9558 185.797 26.9558C184.598 26.9558 183.792 27.8729 183.731 28.9558ZM203.616 32.3149V33.7514H190.704V32.3149H196.268V30.011H192.234V25.3923H200.367V23.6354H192.212V22.232H202.085V26.768H193.969V28.5912H202.411V30.011H197.991V32.3149H203.616ZM221.241 32.3149V33.7514H208.329V32.3149H213.893V30.011H209.859V25.3923H217.992V23.6354H209.837V22.232H219.71V26.768H211.594V28.5912H220.036V30.011H215.616V32.3149H221.241ZM233.389 22.6354V24.2376C233.389 26.1215 233.389 28.0718 232.875 31.0387L231.113 30.8895C231.66 28.116 231.66 26.0663 231.665 24.2376V24.0442H223.516V22.6354H233.389ZM222.157 33.4586V32.0276H235.025V33.4586H222.157ZM247.742 21.2818V31.4862H246.002V21.2818H247.742ZM236.239 25.7348C236.234 23.6796 237.897 22.2099 240.046 22.2099C242.195 22.2099 243.847 23.6796 243.847 25.7348C243.847 27.8232 242.195 29.2818 240.046 29.2762C237.897 29.2818 236.234 27.8232 236.239 25.7348ZM237.936 25.7348C237.93 26.9889 238.836 27.7624 240.046 27.7624C241.223 27.7624 242.14 26.9889 242.14 25.7348C242.14 24.5138 241.223 23.7238 240.046 23.7238C238.836 23.7238 237.93 24.5138 237.936 25.7348ZM238.4 35.116V30.4475H240.151V33.7072H248.14V35.116H238.4Z" fill="black"/>
</g>
<defs>
<filter id="filter0_d_1727_1570" x="0" y="0" width="369" height="64" filterUnits="userSpaceOnUse" color-interpolation-filters="sRGB">
<feFlood flood-opacity="0" result="BackgroundImageFix"/>
<feColorMatrix in="SourceAlpha" type="matrix" values="0 0 0 0 0 0 0 0 0 0 0 0 0 0 0 0 0 0 127 0" result="hardAlpha"/>
<feOffset dy="4"/>
<feGaussianBlur stdDeviation="2"/>
<feComposite in2="hardAlpha" operator="out"/>
<feColorMatrix type="matrix" values="0 0 0 0 0 0 0 0 0 0 0 0 0 0 0 0 0 0 0.25 0"/>
<feBlend mode="normal" in2="BackgroundImageFix" result="effect1_dropShadow_1727_1570"/>
<feBlend mode="normal" in="SourceGraphic" in2="effect1_dropShadow_1727_1570" result="shape"/>
</filter>
</defs>
</svg>
