<svg width="74" height="47" viewBox="0 0 74 47" fill="none" xmlns="http://www.w3.org/2000/svg">
<rect x="1.5" y="1.5" width="71" height="31" rx="15.5" fill="#0F0F13"/>
<rect x="1.5" y="1.5" width="71" height="31" rx="15.5" stroke="#181C22" stroke-width="3"/>
<path d="M13.2044 13.0953H16.4144V11.4372H17.7003V16.7742H11.9233V11.4372H13.2044V13.0953ZM13.1561 17.7459H21.0794V20.8349H14.4613V22H21.4952V23.0442H13.1851V19.8729H19.7887V18.7707H13.1561V17.7459ZM16.4144 15.7396V14.096H13.2044V15.7396H16.4144ZM19.779 10.9102H21.0794V13.4772H22.8536V14.5407H21.0794V17.2141H19.779V10.9102ZM33.7156 19.8246H32.4152V10.9199H33.7156V19.8246ZM23.8006 14.7825C23.8006 14.2023 23.9424 13.6819 24.226 13.221C24.5128 12.7601 24.9044 12.4008 25.4007 12.143C25.9003 11.8819 26.4546 11.7514 27.0637 11.7514C27.6728 11.7514 28.2255 11.8819 28.7218 12.143C29.2182 12.4008 29.6081 12.7601 29.8917 13.221C30.1753 13.6819 30.3172 14.2023 30.3172 14.7825C30.3172 15.3722 30.1753 15.8992 29.8917 16.3633C29.6081 16.8241 29.2182 17.1835 28.7218 17.4413C28.2255 17.6991 27.6728 17.828 27.0637 17.828C26.4514 17.828 25.897 17.6991 25.4007 17.4413C24.9044 17.1835 24.5128 16.8241 24.226 16.3633C23.9424 15.8992 23.8006 15.3722 23.8006 14.7825ZM25.072 14.7825C25.0688 15.1595 25.1526 15.4931 25.3234 15.7831C25.4974 16.0732 25.7359 16.2988 26.0388 16.4599C26.3418 16.6179 26.6834 16.6968 27.0637 16.6968C27.4375 16.6968 27.7743 16.6179 28.0741 16.4599C28.377 16.2988 28.6139 16.0732 28.7847 15.7831C28.9587 15.4931 29.0457 15.1595 29.0457 14.7825C29.0457 14.4118 28.9587 14.0831 28.7847 13.7963C28.6139 13.5062 28.377 13.2822 28.0741 13.1243C27.7711 12.9632 27.4343 12.8826 27.0637 12.8826C26.6866 12.8826 26.345 12.9632 26.0388 13.1243C25.7359 13.2822 25.4974 13.5062 25.3234 13.7963C25.1526 14.0831 25.0688 14.4118 25.072 14.7825ZM25.7004 18.9206H27.0057V21.8453H34.0734V22.9088H25.7004V18.9206ZM43.3451 13.1727C43.3451 13.6915 43.4611 14.1862 43.6932 14.6568C43.9284 15.1273 44.2668 15.5447 44.7083 15.9088C45.1531 16.2698 45.68 16.547 46.2891 16.7403L45.6704 17.7555C44.9839 17.5331 44.3893 17.2028 43.8865 16.7645C43.3838 16.3262 42.9954 15.8105 42.7215 15.2175C42.4508 15.8976 42.0511 16.4906 41.5226 16.9965C40.994 17.4993 40.3656 17.878 39.6372 18.1326L38.9749 17.0981C39.6002 16.8918 40.1432 16.5889 40.6041 16.1892C41.0682 15.7896 41.4243 15.3303 41.6724 14.8115C41.9206 14.2926 42.0463 13.7495 42.0495 13.1823V12.8439H39.352V11.7901H45.9894V12.8439H43.3451V13.1727ZM40.6282 20.8398C40.6282 20.3628 40.7926 19.9535 41.1213 19.6119C41.4533 19.2703 41.927 19.0108 42.5426 18.8336C43.1582 18.6531 43.8897 18.5628 44.7374 18.5628C45.5785 18.5628 46.3037 18.6531 46.9128 18.8336C47.5251 19.0108 47.994 19.2703 48.3195 19.6119C48.645 19.9535 48.8078 20.3628 48.8078 20.8398C48.8078 21.32 48.645 21.7325 48.3195 22.0773C47.994 22.4222 47.5251 22.6849 46.9128 22.8653C46.3037 23.049 45.5785 23.1409 44.7374 23.1409C43.8897 23.1409 43.1582 23.049 42.5426 22.8653C41.927 22.6849 41.4533 22.4222 41.1213 22.0773C40.7926 21.7325 40.6282 21.32 40.6282 20.8398ZM41.9287 20.8398C41.9254 21.1105 42.035 21.3409 42.2574 21.5311C42.4798 21.7212 42.8004 21.8663 43.2194 21.9662C43.6416 22.0661 44.1476 22.116 44.7374 22.116C45.3239 22.116 45.8267 22.0661 46.2456 21.9662C46.6646 21.8663 46.9837 21.7212 47.2028 21.5311C47.4252 21.3409 47.5364 21.1105 47.5364 20.8398C47.5364 20.5755 47.4268 20.3499 47.2077 20.163C46.9885 19.9761 46.6711 19.8343 46.2553 19.7376C45.8428 19.6409 45.3465 19.5925 44.7664 19.5925C44.1701 19.5925 43.6593 19.6409 43.2339 19.7376C42.8085 19.8343 42.483 19.9761 42.2574 20.163C42.035 20.3467 41.9254 20.5723 41.9287 20.8398ZM47.3962 10.9102H48.6966V13.9413H50.4708V15.0145H48.6966V18.2631H47.3962V10.9102ZM62.3819 21.6036H51.1712V20.5449H56.078V17.625H57.3542V20.5449H62.3819V21.6036ZM51.5483 16.7693C52.3282 16.6404 53.0614 16.3697 53.7479 15.9572C54.4343 15.5447 54.9838 15.0435 55.3964 14.4537C55.8121 13.8607 56.0216 13.2484 56.0248 12.6167V11.6982H57.3929V12.6167C57.3929 13.2484 57.6008 13.8607 58.0165 14.4537C58.4323 15.0435 58.985 15.5447 59.6747 15.9572C60.3676 16.3697 61.1072 16.6404 61.8936 16.7693L61.3232 17.8474C60.6592 17.7152 60.026 17.4961 59.4233 17.1899C58.8206 16.8837 58.284 16.5051 57.8135 16.0539C57.3429 15.5994 56.9755 15.0967 56.7113 14.5456C56.4438 15.0935 56.0764 15.5946 55.6091 16.049C55.1418 16.5035 54.6068 16.8854 54.0041 17.1948C53.4046 17.5009 52.7762 17.7185 52.1187 17.8474L51.5483 16.7693Z" fill="#F0F0F9"/>
<path d="M37 47L49 31H25L37 47Z" fill="#181C22"/>
</svg>
