<svg width="28" height="28" viewBox="0 0 28 28" fill="none" xmlns="http://www.w3.org/2000/svg">
<mask id="mask0_1776_375" style="mask-type:alpha" maskUnits="userSpaceOnUse" x="2" y="2" width="24" height="24">
<rect x="2" y="2" width="24" height="24" fill="#D9D9D9"/>
</mask>
<g mask="url(#mask0_1776_375)">
<path d="M13.5 14.0576L5.49998 8.94225V19.1923C5.49998 19.282 5.52883 19.3557 5.58653 19.4134C5.64423 19.4711 5.71795 19.5 5.8077 19.5H14.75V21H5.8077C5.30257 21 4.875 20.825 4.525 20.475C4.175 20.125 4 19.6974 4 19.1923V7.8077C4 7.30257 4.175 6.875 4.525 6.525C4.875 6.175 5.30257 6 5.8077 6H21.1923C21.6974 6 22.125 6.175 22.475 6.525C22.825 6.875 23 7.30257 23 7.8077V14.75H21.5V8.94225L13.5 14.0576ZM13.5 12.5L21.3461 7.49998H5.65383L13.5 12.5ZM20.3077 23.8941L19.2635 22.85L21.0789 21H16.5577V19.5H21.0885L19.2385 17.65L20.3077 16.6058L23.9519 20.25L20.3077 23.8941ZM5.49998 8.94225V20.3365V14.75V14.8731V7.49998V8.94225Z" fill="#76768D"/>
</g>
</svg>
