<svg width="361" height="56" viewBox="0 0 361 56" fill="none" xmlns="http://www.w3.org/2000/svg">
<rect width="361" height="56" rx="8" fill="#FFE812"/>
<path d="M133 20.1428C128.069 20.1428 124.071 23.1487 124.071 26.8562C124.071 29.2531 125.743 31.3565 128.256 32.5442C128.12 32.9939 127.378 35.4378 127.348 35.6297C127.348 35.6297 127.33 35.7739 127.428 35.8289C127.526 35.884 127.641 35.8414 127.641 35.8414C127.922 35.804 130.899 33.81 131.414 33.464C131.929 33.5334 132.459 33.5695 133 33.5695C137.931 33.5695 141.929 30.564 141.929 26.8562C141.929 23.1487 137.931 20.1428 133 20.1428Z" fill="black"/>
<path d="M158.812 22.663C158.807 26.9227 157.641 30.5856 152.431 33.1713L151.475 31.8674C153.928 30.6575 155.387 29.2431 156.21 27.5691L151.818 27.9779L151.591 26.4862L156.735 26.1602C156.917 25.4972 157.028 24.8011 157.077 24.0663H152.326V22.663H158.812ZM160.79 35.3591V21.2707H162.53V26.7901H164.624V28.221H162.53V35.3591H160.79ZM172.64 22.663C172.635 26.9227 171.469 30.5856 166.259 33.1713L165.303 31.8674C167.756 30.6575 169.215 29.2431 170.038 27.5691L165.646 27.9779L165.419 26.4862L170.563 26.1602C170.745 25.4972 170.856 24.8011 170.905 24.0663H166.154V22.663H172.64ZM174.618 35.3591V21.2707H176.359V26.7901H178.452V28.221H176.359V35.3591H174.618ZM185.551 22.0608C188.579 22.0663 190.816 23.5801 190.816 25.8674C190.816 27.9945 188.999 29.4033 186.413 29.6575V32.2486H192.037V33.674H179.126V32.2486H184.689V29.6575C182.12 29.4033 180.303 27.989 180.308 25.8674C180.303 23.5801 182.54 22.0663 185.551 22.0608ZM182.01 25.8674C182.01 27.4033 183.479 28.3094 185.551 28.3149C187.64 28.3094 189.109 27.4033 189.109 25.8674C189.109 24.3978 187.64 23.4586 185.551 23.4641C183.479 23.4586 182.01 24.3978 182.01 25.8674ZM209.662 32.3149V33.7514H196.751V32.3149H202.314V30.011H198.281V25.3923H206.414V23.6354H198.259V22.232H208.132V26.768H200.016V28.5912H208.458V30.011H204.038V32.3149H209.662ZM221.811 22.6354V24.2376C221.811 26.1215 221.811 28.0718 221.297 31.0387L219.535 30.8895C220.082 28.116 220.082 26.0663 220.087 24.2376V24.0442H211.938V22.6354H221.811ZM210.579 33.4586V32.0276H223.446V33.4586H210.579ZM236.164 21.2818V31.4862H234.424V21.2818H236.164ZM224.661 25.7348C224.656 23.6796 226.319 22.2099 228.468 22.2099C230.617 22.2099 232.269 23.6796 232.269 25.7348C232.269 27.8232 230.617 29.2818 228.468 29.2762C226.319 29.2818 224.656 27.8232 224.661 25.7348ZM226.357 25.7348C226.352 26.9889 227.258 27.7624 228.468 27.7624C229.645 27.7624 230.562 26.9889 230.562 25.7348C230.562 24.5138 229.645 23.7238 228.468 23.7238C227.258 23.7238 226.352 24.5138 226.357 25.7348ZM226.821 35.116V30.4475H228.573V33.7072H236.562V35.116H226.821Z" fill="black"/>
</svg>
